grf
version=1
nRows=17
nColumns=73
inDegrees=yes
endheader
time	ground_force_1_vx	ground_force_1_vy	ground_force_1_vz	ground_force_1_px	ground_force_1_py	ground_force_1_pz	ground_moment_1_mx	ground_moment_1_my	ground_moment_1_mz	ground_force_2_vx	ground_force_2_vy	ground_force_2_vz	ground_force_2_px	ground_force_2_py	ground_force_2_pz	ground_moment_2_mx	ground_moment_2_my	ground_moment_2_mz	ground_force_3_vx	ground_force_3_vy	ground_force_3_vz	ground_force_3_px	ground_force_3_py	ground_force_3_pz	ground_moment_3_mx	ground_moment_3_my	ground_moment_3_mz	ground_force_4_vx	ground_force_4_vy	ground_force_4_vz	ground_force_4_px	ground_force_4_py	ground_force_4_pz	ground_moment_4_mx	ground_moment_4_my	ground_moment_4_mz	ground_force_5_vx	ground_force_5_vy	ground_force_5_vz	ground_force_5_px	ground_force_5_py	ground_force_5_pz	ground_moment_5_mx	ground_moment_5_my	ground_moment_5_mz	ground_force_6_vx	ground_force_6_vy	ground_force_6_vz	ground_force_6_px	ground_force_6_py	ground_force_6_pz	ground_moment_6_mx	ground_moment_6_my	ground_moment_6_mz	ground_force_7_vx	ground_force_7_vy	ground_force_7_vz	ground_force_7_px	ground_force_7_py	ground_force_7_pz	ground_moment_7_mx	ground_moment_7_my	ground_moment_7_mz	ground_force_8_vx	ground_force_8_vy	ground_force_8_vz	ground_force_8_px	ground_force_8_py	ground_force_8_pz	ground_moment_8_mx	ground_moment_8_my	ground_moment_8_mz
4.338000	17.513379	72.880834	3.512505	0.701730	0.000000	0.312783	0.000000	-0.235040	-0.000000	63.215604	534.006496	-3.615678	0.226225	0.000000	0.407405	0.000000	0.578164	-0.000000	15.999280	71.950443	3.677470	0.717760	0.000000	0.327518	0.000000	-0.306838	0.000000	63.212037	534.006491	-3.616878	0.224156	0.000000	0.405984	-0.000000	0.578182	-0.000000	13.522555	58.520547	1.661531	0.762700	0.000000	0.320961	-0.000000	-0.069846	0.000000	61.715036	536.739589	-4.010848	0.228562	0.000000	0.407624	0.000000	0.565125	0.000000	0.000000	0.000000	0.000000	0.000000	0.000000	0.000000	0.000000	0.000000	0.000000	61.844526	535.831571	-4.335931	0.231733	0.000000	0.407923	-0.000000	0.626667	-0.000000
4.339000	18.778559	78.074631	4.216057	0.709601	0.000000	0.313627	0.000000	-0.294031	-0.000000	63.909398	533.336017	-3.496021	0.225167	0.000000	0.407304	0.000000	0.574347	-0.000000	17.583890	77.028166	4.337836	0.722239	0.000000	0.326073	0.000000	-0.357095	0.000000	63.905328	533.337722	-3.497363	0.223099	0.000000	0.405883	-0.000000	0.574345	-0.000000	14.988630	63.803161	2.425332	0.760704	0.000000	0.319911	-0.000000	-0.146712	0.000000	62.376880	536.168622	-3.941062	0.227510	0.000000	0.407516	0.000000	0.553526	0.000000	0.000000	0.000000	0.000000	0.000000	0.000000	0.000000	0.000000	0.000000	0.000000	62.525186	535.266440	-4.260590	0.230720	0.000000	0.407808	-0.000000	0.610104	-0.000000
4.340000	19.996973	83.362631	4.860814	0.716107	0.000000	0.314459	0.000000	-0.341967	-0.000000	64.610250	532.631862	-3.357631	0.224105	0.000000	0.407210	0.000000	0.572782	-0.000000	19.087046	82.234045	4.944702	0.725774	0.000000	0.324855	0.000000	-0.396812	0.000000	64.605746	532.635097	-3.359109	0.222037	0.000000	0.405789	-0.000000	0.572761	-0.000000	16.438884	69.230463	3.177015	0.758280	0.000000	0.319086	-0.000000	-0.222446	0.000000	63.053615	535.552988	-3.850020	0.226456	0.000000	0.407413	0.000000	0.544962	0.000000	0.000000	0.000000	0.000000	0.000000	0.000000	0.000000	0.000000	0.000000	0.000000	63.219850	534.656404	-4.164614	0.229703	0.000000	0.407695	-0.000000	0.597000	-0.000000
4.341000	21.149340	88.696163	5.434802	0.721341	0.000000	0.315295	0.000000	-0.377055	-0.000000	65.314378	531.894716	-3.201497	0.223038	0.000000	0.407124	0.000000	0.573241	-0.000000	20.490995	87.515090	5.485777	0.728432	0.000000	0.323868	0.000000	-0.424231	0.000000	65.309509	531.899323	-3.203105	0.220970	0.000000	0.405703	-0.000000	0.573203	-0.000000	17.852907	74.762399	3.895896	0.755510	0.000000	0.318456	-0.000000	-0.291869	0.000000	63.742129	534.896100	-3.737961	0.225400	0.000000	0.407316	0.000000	0.539122	0.000000	0.000000	0.000000	0.000000	0.000000	0.000000	0.000000	0.000000	0.000000	0.000000	63.925289	534.004835	-4.048211	0.228681	0.000000	0.407584	-0.000000	0.587049	-0.000000
4.342000	22.217805	94.024908	5.929140	0.725391	0.000000	0.316144	0.000000	-0.399579	0.000000	66.018034	531.123569	-3.029492	0.221966	0.000000	0.407044	0.000000	0.575377	-0.000000	21.779642	92.816935	5.951847	0.730275	0.000000	0.323114	0.000000	-0.439654	0.000000	66.012865	531.129417	-3.031215	0.219899	0.000000	0.405623	-0.000000	0.575323	-0.000000	19.210599	80.356281	4.564352	0.752466	0.000000	0.318007	-0.000000	-0.351155	0.000000	64.438657	534.200713	-3.605603	0.224341	0.000000	0.407227	0.000000	0.535819	0.000000	0.000000	0.000000	0.000000	0.000000	0.000000	0.000000	0.000000	0.000000	0.000000	64.637659	533.314454	-3.912067	0.227657	0.000000	0.407477	-0.000000	0.580058	-0.000000
4.343000	23.185532	99.297860	6.336866	0.728345	0.000000	0.317011	0.000000	-0.412235	0.000000	66.717386	530.316333	-2.845211	0.220890	0.000000	0.406970	0.000000	0.578706	-0.000000	22.938081	98.084817	6.335606	0.731361	0.000000	0.322582	0.000000	-0.445782	0.000000	66.711985	530.323309	-2.847016	0.218824	0.000000	0.405549	-0.000000	0.578642	-0.000000	20.493154	85.967122	5.168537	0.749205	0.000000	0.317736	-0.000000	-0.397856	0.000000	65.139450	533.467873	-3.453774	0.223278	0.000000	0.407147	0.000000	0.534899	0.000000	0.000000	0.000000	0.000000	0.000000	0.000000	0.000000	0.000000	0.000000	0.000000	65.353154	532.586288	-3.756973	0.226630	0.000000	0.407374	-0.000000	0.575866	-0.000000
4.344000	24.036447	104.464479	6.651941	0.730287	0.000000	0.317893	0.000000	-0.419590	0.000000	67.408549	529.470277	-2.653646	0.219812	0.000000	0.406901	0.000000	0.582653	-0.000000	23.952280	103.264731	6.630664	0.731749	0.000000	0.322259	0.000000	-0.447180	0.000000	67.402982	529.478284	-2.655490	0.217746	0.000000	0.405479	-0.000000	0.582584	-0.000000	21.683404	91.547981	5.698084	0.745770	0.000000	0.317639	-0.000000	-0.431327	0.000000	65.840893	532.696925	-3.284019	0.222212	0.000000	0.407075	0.000000	0.536100	0.000000	0.000000	0.000000	0.000000	0.000000	0.000000	0.000000	0.000000	0.000000	0.000000	66.068135	531.819666	-3.584438	0.225600	0.000000	0.407278	-0.000000	0.574194	-0.000000
4.345000	24.755628	109.475954	6.868897	0.731308	0.000000	0.318786	0.000000	-0.426683	0.000000	68.087830	528.581968	-2.459897	0.218733	0.000000	0.406833	0.000000	0.586463	-0.000000	24.809424	108.304700	6.831204	0.731498	0.000000	0.322125	0.000000	-0.448877	0.000000	68.082160	528.590925	-2.461734	0.216667	0.000000	0.405411	-0.000000	0.586396	-0.000000	22.765470	97.050723	6.145038	0.742192	0.000000	0.317706	-0.000000	-0.453267	0.000000	66.539319	531.886196	-3.099577	0.221144	0.000000	0.407011	0.000000	0.539007	0.000000	0.000000	0.000000	0.000000	0.000000	0.000000	0.000000	0.000000	0.000000	0.000000	66.778926	531.012910	-3.397662	0.224565	0.000000	0.407190	-0.000000	0.574614	-0.000000
4.346000	25.330223	114.286712	6.982830	0.731497	0.000000	0.319682	0.000000	-0.437390	0.000000	68.751993	527.646969	-2.268283	0.217655	0.000000	0.406765	0.000000	0.589035	-0.000000	25.498789	113.156279	6.931977	0.730672	0.000000	0.322158	0.000000	-0.454736	0.000000	68.746278	527.656815	-2.270078	0.215589	0.000000	0.405343	-0.000000	0.588980	-0.000000	23.724287	102.427192	6.502689	0.738495	0.000000	0.317922	-0.000000	-0.467602	0.000000	67.230904	531.033526	-2.905380	0.220073	0.000000	0.406952	-0.000000	0.543086	0.000000	0.000000	0.000000	0.000000	0.000000	0.000000	0.000000	0.000000	0.000000	0.000000	67.481717	530.163860	-3.201536	0.223526	0.000000	0.407110	-0.000000	0.576567	-0.000000
4.347000	25.750245	118.855824	6.989282	0.730947	0.000000	0.320574	0.000000	-0.453285	0.000000	69.398223	526.659745	-2.082618	0.216579	0.000000	0.406695	0.000000	0.588902	-0.000000	26.012505	117.775951	6.928189	0.729337	0.000000	0.322338	0.000000	-0.466319	0.000000	69.392512	526.670440	-2.084339	0.214513	0.000000	0.405273	0.000000	0.588872	-0.000000	24.545654	107.630670	6.764974	0.734704	0.000000	0.318269	-0.000000	-0.479354	0.000000	67.911871	530.136208	-2.706807	0.219002	0.000000	0.406897	-0.000000	0.547603	0.000000	0.000000	0.000000	0.000000	0.000000	0.000000	0.000000	0.000000	0.000000	0.000000	68.172756	529.269814	-3.001404	0.222482	0.000000	0.407038	-0.000000	0.579299	-0.000000
4.348000	26.008803	123.147786	6.884338	0.729752	0.000000	0.321454	0.000000	-0.473371	0.000000	70.023810	525.613960	-1.907087	0.215506	0.000000	0.406620	0.000000	0.584365	-0.000000	26.345757	122.125905	6.815602	0.727559	0.000000	0.322642	0.000000	-0.482606	0.000000	70.018153	525.625479	-1.908697	0.213441	0.000000	0.405198	0.000000	0.584378	-0.000000	25.216963	112.617590	6.926444	0.730841	0.000000	0.318726	-0.000000	-0.493002	0.000000	68.578818	529.190614	-2.508548	0.217931	0.000000	0.406843	-0.000000	0.551459	0.000000	0.000000	0.000000	0.000000	0.000000	0.000000	0.000000	0.000000	0.000000	0.000000	68.848679	528.327154	-2.801916	0.221435	0.000000	0.406974	-0.000000	0.581686	-0.000000
4.349000	26.101934	127.132946	6.665347	0.728001	0.000000	0.322316	0.000000	-0.494641	0.000000	70.625985	524.502972	-1.746625	0.214439	0.000000	0.406539	0.000000	0.573613	-0.000000	26.496592	126.174444	6.591254	0.725403	0.000000	0.323049	0.000000	-0.500567	0.000000	70.620429	524.515303	-1.748080	0.212374	0.000000	0.405118	0.000000	0.573684	-0.000000	25.728137	117.349067	6.982230	0.726933	0.000000	0.319274	-0.000000	-0.511082	0.000000	69.228799	528.191950	-2.314622	0.216863	0.000000	0.406787	-0.000000	0.553167	-0.000000	0.000000	0.000000	0.000000	0.000000	0.000000	0.000000	0.000000	0.000000	0.000000	69.506591	527.331096	-2.607057	0.220385	0.000000	0.406915	-0.000000	0.582215	-0.000000
4.350000	26.028497	130.788042	6.332017	0.725778	0.000000	0.323155	0.000000	-0.513128	0.000000	71.202242	523.320221	-1.606165	0.213378	0.000000	0.406451	0.000000	0.554803	-0.000000	26.465803	129.896517	6.254557	0.722930	0.000000	0.323543	0.000000	-0.516205	0.000000	71.196830	523.333358	-1.607422	0.211313	0.000000	0.405030	0.000000	0.554949	-0.000000	26.072098	121.791599	6.927960	0.723006	0.000000	0.319895	-0.000000	-0.533549	0.000000	69.859078	527.134402	-2.129242	0.215798	0.000000	0.406728	-0.000000	0.551008	-0.000000	0.000000	0.000000	0.000000	0.000000	0.000000	0.000000	0.000000	0.000000	0.000000	70.143809	526.275844	-2.421004	0.219333	0.000000	0.406859	-0.000000	0.579143	-0.000000
4.351000	25.790380	134.096823	5.887186	0.723161	0.000000	0.323972	0.000000	-0.524970	0.000000	71.751121	522.059436	-1.489088	0.212323	0.000000	0.406355	0.000000	0.526337	-0.000000	26.257109	133.274322	5.808073	0.720198	0.000000	0.324111	0.000000	-0.525627	0.000000	71.745884	522.073380	-1.490119	0.210259	0.000000	0.404934	0.000000	0.526574	-0.000000	26.244714	125.917216	6.760189	0.719086	0.000000	0.320572	-0.000000	-0.558059	0.000000	70.466898	526.011737	-1.957399	0.214738	0.000000	0.406664	-0.000000	0.543169	-0.000000	0.000000	0.000000	0.000000	0.000000	0.000000	0.000000	0.000000	0.000000	0.000000	70.757638	525.155181	-2.248715	0.218281	0.000000	0.406805	-0.000000	0.570632	-0.000000
4.352000	25.392829	137.050488	5.336840	0.720224	0.000000	0.324768	0.000000	-0.527203	0.000000	72.272994	520.715064	-1.395881	0.211277	0.000000	0.406252	0.000000	0.487385	-0.000000	25.877479	136.297722	5.257526	0.717258	0.000000	0.324743	0.000000	-0.525834	0.000000	72.267942	520.729816	-1.396688	0.209213	0.000000	0.404830	0.000000	0.487718	-0.000000	26.244647	129.703908	6.477424	0.715196	0.000000	0.321292	-0.000000	-0.580872	0.000000	71.049656	524.817886	-1.804328	0.213684	0.000000	0.406591	-0.000000	0.527793	-0.000000	0.000000	0.000000	0.000000	0.000000	0.000000	0.000000	0.000000	0.000000	0.000000	71.345540	523.963057	-2.095396	0.217230	0.000000	0.406750	-0.000000	0.554800	-0.000000
4.353000	24.844479	139.647732	4.689601	0.717030	0.000000	0.325550	0.000000	-0.518189	0.000000	72.770146	519.283069	-1.323616	0.210241	0.000000	0.406141	0.000000	0.438413	-0.000000	25.337159	138.964287	4.611303	0.714156	0.000000	0.325432	0.000000	-0.515149	0.000000	72.765271	519.298624	-1.324229	0.208177	0.000000	0.404720	0.000000	0.438838	-0.000000	26.073435	133.136322	6.081092	0.711358	0.000000	0.322045	0.000000	-0.597966	0.000000	71.605579	523.547115	-1.674012	0.212635	0.000000	0.406511	-0.000000	0.503183	-0.000000	0.000000	0.000000	0.000000	0.000000	0.000000	0.000000	0.000000	0.000000	0.000000	71.905806	522.693756	-1.965001	0.216182	0.000000	0.406691	-0.000000	0.529926	-0.000000
4.354000	24.156820	141.894439	3.956264	0.713639	0.000000	0.326324	0.000000	-0.497752	0.000000	73.246000	517.761585	-1.266266	0.209218	0.000000	0.406027	0.000000	0.381388	-0.000000	24.649128	141.278957	3.879978	0.710937	0.000000	0.326177	0.000000	-0.493362	0.000000	73.241283	517.777922	-1.266745	0.207153	0.000000	0.404606	0.000000	0.381885	-0.000000	25.735777	136.206175	5.575860	0.707588	0.000000	0.322824	0.000000	-0.605956	0.000000	72.134597	522.194164	-1.567710	0.211593	0.000000	0.406420	-0.000000	0.468300	-0.000000	0.000000	0.000000	0.000000	0.000000	0.000000	0.000000	0.000000	0.000000	0.000000	72.438437	521.342041	-1.858761	0.215138	0.000000	0.406626	-0.000000	0.494947	-0.000000
